<svg width="25" height="32" viewBox="0 0 25 32" fill="none" xmlns="http://www.w3.org/2000/svg">
<path d="M5.39339 5.20259C5.39339 5.20259 5.25915 5.33185 4.99069 5.59038C4.72222 5.8489 4.22009 5.97816 3.4843 5.97816C2.7485 5.97816 2.12208 5.71964 1.60504 5.20259C1.08799 4.68555 0.829468 4.04918 0.829468 3.2935C0.829468 2.53782 1.08799 1.90146 1.60504 1.38441C2.12208 0.867365 2.7485 0.608843 3.4843 0.608843C4.22009 0.608843 4.85646 0.867365 5.39339 1.38441C5.93032 1.90146 6.19879 2.53782 6.19879 3.2935C6.19879 4.04918 5.93032 4.68555 5.39339 5.20259ZM4.14055 2.66708C4.14055 2.66708 4.0958 2.62234 4.00631 2.53285C3.91683 2.44336 3.75276 2.39861 3.51413 2.39861C3.27549 2.39861 3.06668 2.4881 2.88771 2.66708C2.70873 2.84606 2.61924 3.05486 2.61924 3.2935C2.61924 3.53214 2.70873 3.74095 2.88771 3.91992C3.06668 4.0989 3.27549 4.18839 3.51413 4.18839C3.75276 4.18839 3.96157 4.0989 4.14055 3.91992C4.31952 3.74095 4.40901 3.53214 4.40901 3.2935C4.40901 3.05486 4.31952 2.84606 4.14055 2.66708ZM12.5525 5.20259C12.5525 5.20259 12.4182 5.33185 12.1498 5.59038C11.8813 5.8489 11.3792 5.97816 10.6434 5.97816C9.90759 5.97816 9.28117 5.71964 8.76413 5.20259C8.24708 4.68555 7.98856 4.04918 7.98856 3.2935C7.98856 2.53782 8.24708 1.90146 8.76413 1.38441C9.28117 0.867365 9.90759 0.608843 10.6434 0.608843C11.3792 0.608843 12.0155 0.867365 12.5525 1.38441C13.0894 1.90146 13.3579 2.53782 13.3579 3.2935C13.3579 4.04918 13.0894 4.68555 12.5525 5.20259ZM11.2996 2.66708C11.2996 2.66708 11.2549 2.62234 11.1654 2.53285C11.0759 2.44336 10.9119 2.39861 10.6732 2.39861C10.4346 2.39861 10.2258 2.4881 10.0468 2.66708C9.86782 2.84606 9.77833 3.05486 9.77833 3.2935C9.77833 3.53214 9.86782 3.74095 10.0468 3.91992C10.2258 4.0989 10.4346 4.18839 10.6732 4.18839C10.9119 4.18839 11.1207 4.0989 11.2996 3.91992C11.4786 3.74095 11.5681 3.53214 11.5681 3.2935C11.5681 3.05486 11.4786 2.84606 11.2996 2.66708ZM19.7116 5.20259C19.7116 5.20259 19.5773 5.33185 19.3089 5.59038C19.0404 5.8489 18.5383 5.97816 17.8025 5.97816C17.0667 5.97816 16.4403 5.71964 15.9232 5.20259C15.4062 4.68555 15.1476 4.04918 15.1476 3.2935C15.1476 2.53782 15.4062 1.90146 15.9232 1.38441C16.4403 0.867365 17.0766 0.608843 17.8323 0.608843C18.3096 0.608843 18.757 0.728161 19.1746 0.966797C19.5923 1.20543 19.9204 1.53356 20.159 1.95117C20.3976 2.36879 20.517 2.81623 20.517 3.2935C20.517 4.04918 20.2485 4.68555 19.7116 5.20259ZM18.4587 2.66708C18.4587 2.66708 18.414 2.62234 18.3245 2.53285C18.235 2.44336 18.0709 2.39861 17.8323 2.39861C17.5937 2.39861 17.3849 2.4881 17.2059 2.66708C17.0269 2.84606 16.9374 3.05486 16.9374 3.2935C16.9374 3.53214 17.0269 3.74095 17.2059 3.91992C17.3849 4.0989 17.5937 4.18839 17.8323 4.18839C18.0709 4.18839 18.2798 4.0989 18.4587 3.91992C18.6377 3.74095 18.7272 3.53214 18.7272 3.2935C18.7272 3.05486 18.6377 2.84606 18.4587 2.66708ZM5.39339 12.3617C5.39339 12.3617 5.25915 12.4909 4.99069 12.7495C4.72222 13.008 4.22009 13.1373 3.4843 13.1373C2.7485 13.1373 2.12208 12.8787 1.60504 12.3617C1.08799 11.8446 0.829468 11.2083 0.829468 10.4526C0.829468 9.69691 1.08799 9.06055 1.60504 8.5435C2.12208 8.02646 2.7485 7.76793 3.4843 7.76793C4.22009 7.76793 4.85646 8.02646 5.39339 8.5435C5.93032 9.06055 6.19879 9.69691 6.19879 10.4526C6.19879 11.2083 5.93032 11.8446 5.39339 12.3617ZM4.14055 9.82617C4.14055 9.82617 4.0958 9.78143 4.00631 9.69194C3.91683 9.60245 3.75276 9.55771 3.51413 9.55771C3.27549 9.55771 3.06668 9.6472 2.88771 9.82617C2.70873 10.0051 2.61924 10.214 2.61924 10.4526C2.61924 10.6912 2.70873 10.9 2.88771 11.079C3.06668 11.258 3.27549 11.3475 3.51413 11.3475C3.75276 11.3475 3.96157 11.258 4.14055 11.079C4.31952 10.9 4.40901 10.6912 4.40901 10.4526C4.40901 10.214 4.31952 10.0051 4.14055 9.82617ZM19.7116 12.3617C19.7116 12.3617 19.5773 12.4909 19.3089 12.7495C19.0404 13.008 18.5383 13.1373 17.8025 13.1373C17.0667 13.1373 16.4403 12.8787 15.9232 12.3617C15.4062 11.8446 15.1476 11.2083 15.1476 10.4526C15.1476 9.69691 15.4062 9.06055 15.9232 8.5435C16.4403 8.02646 17.0667 7.76793 17.8025 7.76793C18.5383 7.76793 19.1746 8.02646 19.7116 8.5435C20.2485 9.06055 20.517 9.69691 20.517 10.4526C20.517 11.2083 20.2485 11.8446 19.7116 12.3617ZM18.4587 9.82617C18.4587 9.82617 18.414 9.78143 18.3245 9.69194C18.235 9.60245 18.0709 9.55771 17.8323 9.55771C17.5937 9.55771 17.3849 9.6472 17.2059 9.82617C17.0269 10.0051 16.9374 10.214 16.9374 10.4526C16.9374 10.6912 17.0269 10.9 17.2059 11.079C17.3849 11.258 17.5937 11.3475 17.8323 11.3475C18.0709 11.3475 18.2798 11.258 18.4587 11.079C18.6377 10.9 18.7272 10.6912 18.7272 10.4526C18.7272 10.214 18.6377 10.0051 18.4587 9.82617ZM5.39339 15.7026C5.39339 15.7026 5.52762 15.8319 5.79609 16.0904C6.06455 16.3489 6.19879 16.856 6.19879 17.6117C6.19879 18.3674 5.93032 19.0037 5.39339 19.5208C4.85646 20.0378 4.22009 20.2963 3.4843 20.2963C2.7485 20.2963 2.12208 20.0378 1.60504 19.5208C1.08799 19.0037 0.829468 18.3674 0.829468 17.6117C0.829468 16.856 1.08799 16.2196 1.60504 15.7026C2.12208 15.1855 2.7485 14.927 3.4843 14.927C4.22009 14.927 4.85646 15.1855 5.39339 15.7026ZM2.88771 18.2381C2.88771 18.2381 2.93245 18.2828 3.02194 18.3723C3.11143 18.4618 3.27549 18.5066 3.51413 18.5066C3.75276 18.5066 3.96157 18.4171 4.14055 18.2381C4.31952 18.0591 4.40901 17.8503 4.40901 17.6117C4.40901 17.373 4.31952 17.1642 4.14055 16.9853C3.96157 16.8063 3.75276 16.7168 3.51413 16.7168C3.27549 16.7168 3.06668 16.8063 2.88771 16.9853C2.70873 17.1642 2.61924 17.373 2.61924 17.6117C2.61924 17.8503 2.70873 18.0591 2.88771 18.2381ZM21.4119 15.106C22.1675 15.106 22.8039 15.3645 23.3209 15.8816C23.838 16.3986 24.0965 17.035 24.0965 17.7907V30.2594C24.0965 30.498 24.007 30.7069 23.828 30.8858C23.6491 31.0648 23.4403 31.1543 23.2016 31.1543H11.8067C11.5681 31.1543 11.3494 31.0748 11.1505 30.9157C8.96299 28.7282 6.91469 26.5208 5.0056 24.2935C4.52833 23.7367 4.28969 23.1003 4.28969 22.3844C4.28969 21.6685 4.54822 21.052 5.06526 20.535C5.90049 19.6998 6.87492 19.5009 7.98856 19.9384V18.8049C7.98856 14.9867 7.98856 12.3816 7.98856 10.9895C7.98856 10.5123 8.10788 10.0648 8.34651 9.6472C8.58515 9.22958 8.91327 8.90146 9.33089 8.66282C9.7485 8.42418 10.1959 8.30486 10.6732 8.30486C11.1505 8.30486 11.5979 8.42418 12.0155 8.66282C12.4332 8.90146 12.7613 9.22958 12.9999 9.6472C13.2386 10.0648 13.3579 10.5123 13.3579 10.9895V15.2253C13.6363 15.1458 13.9346 15.106 14.2528 15.106C14.9289 15.106 15.5255 15.3248 16.0425 15.7623C16.5596 15.3248 17.1562 15.106 17.8323 15.106C18.5084 15.106 19.105 15.3248 19.6221 15.7623C20.1391 15.3248 20.7357 15.106 21.4119 15.106ZM22.3067 29.3645V17.7907C22.3067 17.5123 22.2173 17.2935 22.0383 17.1344C21.8593 16.9753 21.6505 16.8958 21.4119 16.8958C21.1732 16.8958 20.9644 16.9753 20.7854 17.1344C20.6065 17.2935 20.517 17.5123 20.517 17.7907V18.8645C20.517 19.1032 20.4275 19.312 20.2485 19.4909C20.0695 19.6699 19.8607 19.7594 19.6221 19.7594C19.3834 19.7594 19.1746 19.6699 18.9957 19.4909C18.8167 19.312 18.7272 19.1032 18.7272 18.8645C18.7272 18.1486 18.7272 17.7907 18.7272 17.7907C18.7272 17.5123 18.6377 17.2935 18.4587 17.1344C18.2798 16.9753 18.0709 16.8958 17.8323 16.8958C17.6732 16.8958 17.5241 16.9355 17.3849 17.0151C17.2457 17.0946 17.1363 17.1941 17.0567 17.3134C16.9772 17.4327 16.9374 17.5918 16.9374 17.7907V18.8645C16.9374 19.1032 16.8479 19.312 16.669 19.4909C16.49 19.6699 16.2812 19.7594 16.0425 19.7594C15.8039 19.7594 15.5951 19.6699 15.4161 19.4909C15.2371 19.312 15.1476 19.1032 15.1476 18.8645C15.1476 18.1486 15.1476 17.7907 15.1476 17.7907C15.1476 17.5123 15.0582 17.2935 14.8792 17.1344C14.7002 16.9753 14.4914 16.8958 14.2528 16.8958C14.0141 16.8958 13.8153 16.9753 13.6562 17.1344C13.4971 17.2935 13.3976 17.4924 13.3579 17.731V18.8645C13.3579 19.1032 13.2684 19.312 13.0894 19.4909C12.9104 19.6699 12.7016 19.7594 12.463 19.7594C12.2244 19.7594 12.0155 19.6699 11.8366 19.4909C11.6576 19.312 11.5681 19.1032 11.5681 18.8645V10.9895C11.5681 10.7509 11.4786 10.5421 11.2996 10.3631C11.1207 10.1841 10.9119 10.0946 10.6732 10.0946C10.4346 10.0946 10.2258 10.1841 10.0468 10.3631C9.86782 10.5421 9.77833 10.7509 9.77833 10.9895V21.8475C9.77833 22.2452 9.59935 22.5236 9.2414 22.6827C8.88344 22.8418 8.56526 22.7821 8.28685 22.5037L7.57094 21.7878C7.17322 21.3901 6.7556 21.3901 6.3181 21.7878C5.92038 22.1855 5.94026 22.623 6.37776 23.1003C8.12776 25.1685 10.0567 27.2566 12.1647 29.3645H22.3067Z" fill="#00AA55"/>
</svg>
