<svg width="37" height="37" viewBox="0 0 37 37" fill="none" xmlns="http://www.w3.org/2000/svg">
<path d="M36.7424 13.5275C36.894 13.6285 36.9697 13.78 36.9697 13.982V35.8002C36.9697 36.2042 36.7677 36.4062 36.3637 36.4062H1.21214C0.808099 36.4062 0.606079 36.2042 0.606079 35.8002V13.982C0.606079 13.78 0.681837 13.6285 0.833352 13.5275L4.8485 10.4972V4.8911C4.8485 4.48706 5.05052 4.28504 5.45456 4.28504H12.9546L17.6515 0.72443C18.0051 0.471905 18.3839 0.345642 18.7879 0.345642C19.1919 0.345642 19.5707 0.471905 19.9243 0.72443L24.6212 4.28504H32.1212C32.5253 4.28504 32.7273 4.48706 32.7273 4.8911V10.4972L36.7424 13.5275ZM32.7273 12.0123V16.179L35.3788 13.982L32.7273 12.0123ZM18.4091 1.70928L15 4.28504H22.5758L19.1667 1.70928C19.0657 1.60827 18.9394 1.55777 18.7879 1.55777C18.6364 1.55777 18.5101 1.60827 18.4091 1.70928ZM6.06062 5.49716V17.2396L14.394 24.1335L17.6515 21.4062C17.9546 21.1537 18.3334 21.0275 18.7879 21.0275C19.2424 21.0275 19.6212 21.1537 19.9243 21.4062L23.1818 24.1335L31.5152 17.2396V5.49716H6.06062ZM2.19699 13.982L4.8485 16.179V12.0123L2.19699 13.982ZM1.8182 15.2699V34.5123L13.4091 24.8911L1.8182 15.2699ZM2.87881 35.1941H34.697L19.1667 22.3911C19.0657 22.2901 18.9394 22.2396 18.7879 22.2396C18.6364 22.2396 18.5101 22.2901 18.4091 22.3911L2.87881 35.1941ZM35.7576 34.5123V15.2699L24.1667 24.8911L35.7576 34.5123ZM18.7879 18.8305C17.2727 18.8305 15.9849 18.3002 14.9243 17.2396C13.8637 16.179 13.3334 14.8911 13.3334 13.3759C13.3334 11.8608 13.8637 10.5729 14.9243 9.51231C15.9849 8.4517 17.2727 7.9214 18.7879 7.9214H20C21.1616 7.9214 22.1591 8.33807 22.9924 9.1714C23.8258 10.0047 24.2424 11.0022 24.2424 12.1638V14.5881C24.2424 15.0931 24.0657 15.5224 23.7121 15.8759C23.3586 16.2295 22.9293 16.4062 22.4243 16.4062C21.7677 16.4062 21.2626 16.1285 20.9091 15.5729C20.303 16.1285 19.596 16.4062 18.7879 16.4062C17.9293 16.4062 17.2096 16.1158 16.6288 15.535C16.048 14.9542 15.7576 14.2345 15.7576 13.3759C15.7576 12.5174 16.048 11.7977 16.6288 11.2169C17.2096 10.636 17.9293 10.3456 18.7879 10.3456H20C20.5051 10.3456 20.9344 10.5224 21.2879 10.8759C21.6414 11.2295 21.8182 11.6588 21.8182 12.1638V14.5881C21.8182 14.9921 22.0202 15.1941 22.4243 15.1941C22.8283 15.1941 23.0303 14.9921 23.0303 14.5881V12.1638C23.0303 11.3052 22.7399 10.5855 22.1591 10.0047C21.5783 9.42393 20.8586 9.13352 20 9.13352H18.7879C17.6263 9.13352 16.6288 9.55019 15.7955 10.3835C14.9621 11.2169 14.5455 12.2143 14.5455 13.3759C14.5455 14.5376 14.9621 15.535 15.7955 16.3684C16.6288 17.2017 17.6263 17.6184 18.7879 17.6184H21.8182C22.2222 17.6184 22.4243 17.8204 22.4243 18.2244C22.4243 18.6285 22.2222 18.8305 21.8182 18.8305H18.7879ZM17.5 14.6638C17.5 14.6638 17.5884 14.7522 17.7652 14.929C17.9419 15.1057 18.2828 15.1941 18.7879 15.1941C19.2929 15.1941 19.7222 15.0174 20.0758 14.6638C20.4293 14.3103 20.6061 13.881 20.6061 13.3759V12.1638C20.6061 11.7598 20.4041 11.5578 20 11.5578H18.7879C18.2828 11.5578 17.8536 11.7345 17.5 12.0881C17.1465 12.4416 16.9697 12.8709 16.9697 13.3759C16.9697 13.881 17.1465 14.3103 17.5 14.6638Z" fill="#00AA55"/>
</svg>
