<svg width="60" height="61" viewBox="0 0 60 61" fill="none" xmlns="http://www.w3.org/2000/svg">
<path fill-rule="evenodd" clip-rule="evenodd" d="M38.2024 2.20842C38.3847 1.67888 38.4759 1.41411 38.6486 1.24734C38.8005 1.10064 38.9949 1.0058 39.204 0.976412C39.4418 0.943 39.7066 1.03417 40.2361 1.2165L41.7126 1.72489C42.2421 1.90723 42.5069 1.99839 42.6736 2.17109C42.8203 2.323 42.9152 2.51745 42.9446 2.72658C42.978 2.96432 42.8868 3.22909 42.7045 3.75863L36.2494 22.5056L31.7473 20.9554L38.2024 2.20842ZM21.9567 25.7305L3.20978 19.2756C2.68024 19.0933 2.41547 19.0021 2.17772 19.0355C1.9686 19.0649 1.77414 19.1598 1.62223 19.3065C1.44953 19.4732 1.35836 19.738 1.17602 20.2676L0.667618 21.744C0.485278 22.2736 0.394108 22.5383 0.427518 22.7761C0.456907 22.9852 0.551746 23.1796 0.698443 23.3315C0.865209 23.5042 1.12997 23.5954 1.65947 23.7777L1.6595 23.7777L1.65953 23.7777L20.4065 30.2326L21.9567 25.7305ZM25.5464 38.9639L19.0915 57.7104C18.9092 58.2399 18.818 58.5047 18.8514 58.7424C18.8808 58.9516 18.9756 59.146 19.1223 59.2979C19.2891 59.4706 19.5539 59.5618 20.0834 59.7441L21.5599 60.2525C22.0894 60.4348 22.3542 60.526 22.5919 60.4926C22.8011 60.4632 22.9955 60.3684 23.1474 60.2217C23.3201 60.0549 23.4113 59.7901 23.5936 59.2606L30.0486 40.5141L25.5464 38.9639ZM38.415 36.4332L57.1617 42.888L57.1617 42.888C57.6912 43.0704 57.956 43.1615 58.1937 43.1281C58.4029 43.0987 58.5973 43.0039 58.7492 42.8572C58.9219 42.6904 59.0131 42.4257 59.1954 41.8962L59.1954 41.8961L59.7038 40.4196C59.8862 39.8901 59.9774 39.6253 59.9439 39.3876C59.9146 39.1785 59.8197 38.984 59.673 38.8321C59.5062 38.6594 59.2415 38.5683 58.7119 38.3859L39.9653 31.9311L38.415 36.4332Z" fill="#1DAE69"/>
</svg>
