<svg width="40" height="40" viewBox="0 0 40 40" fill="none" xmlns="http://www.w3.org/2000/svg">
<path d="M38.1061 10.5341C38.4596 10.5341 38.7626 10.6604 39.0152 10.9129C39.2677 11.1654 39.394 11.4684 39.394 11.822V38.3371C39.394 38.6907 39.2677 38.9937 39.0152 39.2462C38.7626 39.4987 38.4596 39.625 38.1061 39.625H1.89396C1.54042 39.625 1.23739 39.4987 0.984867 39.2462C0.732342 38.9937 0.606079 38.6907 0.606079 38.3371V11.822C0.606079 11.4684 0.732342 11.1654 0.984867 10.9129C1.23739 10.6604 1.54042 10.5341 1.89396 10.5341H3.18184C3.63638 10.5341 3.86365 10.7487 3.86365 11.178C3.86365 11.6073 3.63638 11.822 3.18184 11.822H1.89396V38.3371H38.1061V11.822H23.8637C23.4596 11.822 23.2576 11.6073 23.2576 11.178C23.2576 10.7487 23.4596 10.5341 23.8637 10.5341H38.1061ZM8.33335 34.4735C7.7778 34.4735 7.24749 34.322 6.74244 34.0189C6.23739 33.7159 5.84598 33.3245 5.5682 32.8447C5.29042 32.3649 5.15153 31.822 5.15153 31.2159V4.0947C5.15153 3.1856 5.46719 2.4154 6.0985 1.78409C6.72982 1.15277 7.47477 0.83712 8.33335 0.83712H17.4243C18.3334 0.83712 19.1036 1.15277 19.7349 1.78409C20.3662 2.4154 20.6818 3.1856 20.6818 4.0947V31.2159C20.6818 32.125 20.3662 32.8952 19.7349 33.5265C19.1036 34.1578 18.3334 34.4735 17.4243 34.4735H8.33335ZM6.43941 4.0947V31.2159C6.43941 31.5694 6.5278 31.8977 6.70456 32.2008C6.88133 32.5038 7.1086 32.7437 7.38638 32.9205C7.66416 33.0972 7.97982 33.1856 8.33335 33.1856H17.4243C17.9293 33.1856 18.3712 32.9962 18.75 32.6174C19.1288 32.2386 19.3182 31.7715 19.3182 31.2159V4.0947C19.3182 3.53914 19.1288 3.07197 18.75 2.69318C18.3712 2.31439 17.9293 2.125 17.4243 2.125H8.33335C7.8283 2.125 7.38638 2.31439 7.00759 2.69318C6.62881 3.07197 6.43941 3.53914 6.43941 4.0947ZM24.5455 21.5189C24.2929 21.5189 24.0657 21.4558 23.8637 21.3295C23.6616 21.2033 23.5101 21.0518 23.4091 20.875C23.3081 20.6982 23.2576 20.4836 23.2576 20.2311V15.0795C23.2576 14.726 23.3839 14.423 23.6364 14.1705C23.8889 13.9179 24.1919 13.7917 24.5455 13.7917H30.9849C31.4394 13.7917 31.6667 14.0063 31.6667 14.4356C31.6667 14.8649 31.4394 15.0795 30.9849 15.0795H24.5455V20.2311H35.5303V15.0795H34.2424C33.7879 15.0795 33.5606 14.8649 33.5606 14.4356C33.5606 14.0063 33.7879 13.7917 34.2424 13.7917H35.5303C35.8839 13.7917 36.1869 13.9179 36.4394 14.1705C36.6919 14.423 36.8182 14.726 36.8182 15.0795V20.2311C36.8182 20.5846 36.6919 20.8876 36.4394 21.1402C36.1869 21.3927 35.8839 21.5189 35.5303 21.5189H24.5455ZM23.8637 24.7765C23.4596 24.7765 23.2576 24.5619 23.2576 24.1326C23.2576 23.7033 23.4596 23.4886 23.8637 23.4886H25.8334C26.2374 23.4886 26.4394 23.7033 26.4394 24.1326C26.4394 24.5619 26.2374 24.7765 25.8334 24.7765H23.8637ZM36.1364 23.4886C36.5909 23.4886 36.8182 23.7033 36.8182 24.1326C36.8182 24.5619 36.5909 24.7765 36.1364 24.7765H34.2424C33.7879 24.7765 33.5606 24.5619 33.5606 24.1326C33.5606 23.7033 33.7879 23.4886 34.2424 23.4886H36.1364ZM30.9849 23.4886C31.4394 23.4886 31.6667 23.7033 31.6667 24.1326C31.6667 24.5619 31.4394 24.7765 30.9849 24.7765H29.0152C28.6111 24.7765 28.4091 24.5619 28.4091 24.1326C28.4091 23.7033 28.6111 23.4886 29.0152 23.4886H30.9849ZM23.8637 27.9583C23.4596 27.9583 23.2576 27.7437 23.2576 27.3144C23.2576 26.8851 23.4596 26.6705 23.8637 26.6705H25.8334C26.2374 26.6705 26.4394 26.8851 26.4394 27.3144C26.4394 27.7437 26.2374 27.9583 25.8334 27.9583H23.8637ZM36.1364 26.6705C36.5909 26.6705 36.8182 26.8851 36.8182 27.3144C36.8182 27.7437 36.5909 27.9583 36.1364 27.9583H34.2424C33.7879 27.9583 33.5606 27.7437 33.5606 27.3144C33.5606 26.8851 33.7879 26.6705 34.2424 26.6705H36.1364ZM30.9849 26.6705C31.4394 26.6705 31.6667 26.8851 31.6667 27.3144C31.6667 27.7437 31.4394 27.9583 30.9849 27.9583H29.0152C28.6111 27.9583 28.4091 27.7437 28.4091 27.3144C28.4091 26.8851 28.6111 26.6705 29.0152 26.6705H30.9849ZM23.8637 31.2159C23.4596 31.2159 23.2576 31.0013 23.2576 30.572C23.2576 30.1427 23.4596 29.928 23.8637 29.928H25.8334C26.2374 29.928 26.4394 30.1427 26.4394 30.572C26.4394 31.0013 26.2374 31.2159 25.8334 31.2159H23.8637ZM36.1364 29.928C36.5909 29.928 36.8182 30.1427 36.8182 30.572C36.8182 31.0013 36.5909 31.2159 36.1364 31.2159H34.2424C33.7879 31.2159 33.5606 31.0013 33.5606 30.572C33.5606 30.1427 33.7879 29.928 34.2424 29.928H36.1364ZM30.9849 29.928C31.4394 29.928 31.6667 30.1427 31.6667 30.572C31.6667 31.0013 31.4394 31.2159 30.9849 31.2159H29.0152C28.6111 31.2159 28.4091 31.0013 28.4091 30.572C28.4091 30.1427 28.6111 29.928 29.0152 29.928H30.9849ZM23.8637 34.4735C23.4596 34.4735 23.2576 34.2588 23.2576 33.8295C23.2576 33.4003 23.4596 33.1856 23.8637 33.1856H25.8334C26.2374 33.1856 26.4394 33.4003 26.4394 33.8295C26.4394 34.2588 26.2374 34.4735 25.8334 34.4735H23.8637ZM36.1364 33.1856C36.5909 33.1856 36.8182 33.4003 36.8182 33.8295C36.8182 34.2588 36.5909 34.4735 36.1364 34.4735H34.2424C33.7879 34.4735 33.5606 34.2588 33.5606 33.8295C33.5606 33.4003 33.7879 33.1856 34.2424 33.1856H36.1364ZM30.9849 33.1856C31.4394 33.1856 31.6667 33.4003 31.6667 33.8295C31.6667 34.2588 31.4394 34.4735 30.9849 34.4735H29.0152C28.6111 34.4735 28.4091 34.2588 28.4091 33.8295C28.4091 33.4003 28.6111 33.1856 29.0152 33.1856H30.9849Z" fill="#00AA55"/>
</svg>
