<svg width="32" height="30" viewBox="0 0 32 30" fill="none" xmlns="http://www.w3.org/2000/svg">
<path d="M30.0796 11.0638C30.9148 12.0183 31.3125 13.1121 31.2727 14.345V24.845C31.2727 26.4359 30.8154 27.6192 29.9006 28.3948C28.9858 29.1703 27.8722 29.5581 26.5597 29.5581H5.44036C3.84945 29.5581 2.66622 29.1007 1.89065 28.1859C1.11508 27.2712 0.727295 26.1575 0.727295 24.845V14.345C0.727295 13.1121 1.10514 12.0183 1.86082 11.0638C2.05968 10.8252 2.29832 10.8053 2.57673 11.0041L3.17332 11.3621V1.2797V1.22004C3.21309 0.941629 3.34235 0.702991 3.5611 0.504129C3.77985 0.305265 4.04832 0.205833 4.3665 0.205833H26.9773C27.2955 0.205833 27.5639 0.305265 27.7827 0.504129C28.0014 0.702991 28.1307 0.961515 28.1705 1.2797V11.8394L29.4233 11.0041C29.662 10.845 29.8807 10.8649 30.0796 11.0638ZM4.3665 1.22004C4.28695 1.22004 4.22729 1.23992 4.18752 1.2797V12.0183L16 19.7144L27.1563 12.4956V1.22004H26.9773H4.3665ZM1.92048 25.9786L12.0625 18.3422L2.39775 12.078C1.96025 12.7939 1.7415 13.5496 1.7415 14.345L1.80116 24.845C1.80116 25.2428 1.84093 25.6206 1.92048 25.9786ZM26.5597 28.5439C27.8324 28.5439 28.8466 28.0269 29.6023 26.9928L18.8637 18.9388L16.179 20.7286C16.0995 20.7683 16.0199 20.7882 15.9404 20.7882C15.8608 20.7882 15.8012 20.7683 15.7614 20.7286L12.9574 18.8791L2.27843 26.9331C2.87502 28.007 3.929 28.5439 5.44036 28.5439H26.5597ZM30.2585 14.345C30.2983 13.5496 30.0796 12.7939 29.6023 12.078L19.9375 18.4019L30.0796 26.0382C30.1989 25.6405 30.2585 25.2428 30.2585 24.845V14.345ZM14.598 3.93453C14.598 3.93453 14.9013 3.84007 15.5078 3.65115C16.1144 3.46222 16.9844 3.65612 18.1179 4.23282C19.2514 4.80953 20.0071 5.70441 20.385 6.91748C20.7628 8.13055 20.6733 9.31379 20.1165 10.4672C19.8381 10.9842 19.4205 11.3223 18.8637 11.4814C18.7841 11.4814 18.6847 11.4814 18.5654 11.4814C18.2074 11.4814 17.929 11.3422 17.7301 11.0638C17.571 10.8649 17.4915 10.6263 17.4915 10.3479C17.054 10.7058 16.5568 10.8848 16 10.8848C15.3239 10.845 14.7472 10.5766 14.2699 10.0794C13.7926 9.58225 13.554 8.99561 13.554 8.31947C13.554 8.23992 13.554 8.16038 13.554 8.08083C13.5938 7.4047 13.8622 6.83793 14.3594 6.38055C14.8566 5.92316 15.4432 5.71436 16.1193 5.75413C16.7955 5.7939 17.3523 6.06237 17.7898 6.55953C18.2273 7.05668 18.446 7.64333 18.446 8.31947V10.1689C18.446 10.4075 18.4858 10.5269 18.5654 10.5269H18.6847C18.9233 10.4075 19.1023 10.2286 19.2216 9.98992C19.5 9.47288 19.6392 8.91606 19.6392 8.31947C19.6392 7.28538 19.2813 6.42032 18.5654 5.7243C17.8495 5.02828 16.9943 4.68027 16 4.68027C15.0057 4.68027 14.1506 5.03822 13.4347 5.75413C12.7188 6.47004 12.3608 7.32515 12.3608 8.31947C12.3608 9.31379 12.7188 10.1689 13.4347 10.8848C14.1506 11.6007 15.0057 11.9587 16 11.9587C16.3182 11.9587 16.6165 11.9189 16.8949 11.8394C17.054 11.7996 17.1932 11.8394 17.3125 11.9587C17.4318 11.9984 17.4915 12.078 17.4915 12.1973C17.5313 12.3166 17.5114 12.4359 17.4318 12.5553C17.3523 12.6746 17.2529 12.7541 17.1335 12.7939C16.7756 12.8734 16.3977 12.9132 16 12.9132C14.7273 12.9132 13.6435 12.4658 12.7486 11.5709C11.8537 10.676 11.4063 9.5922 11.4063 8.31947C11.4063 7.60356 11.5654 6.90754 11.8835 6.2314C12.4801 5.07799 13.385 4.31237 14.598 3.93453ZM16 9.87061C16.4375 9.87061 16.7955 9.71152 17.0739 9.39333C17.3523 9.07515 17.4915 8.7172 17.4915 8.31947C17.4915 8.16038 17.4617 8.00129 17.402 7.8422C17.3424 7.68311 17.2727 7.5439 17.1932 7.42458C17.1137 7.30527 17.0142 7.19589 16.8949 7.09646C16.7756 6.99703 16.6364 6.91748 16.4773 6.85782C16.3182 6.79816 16.1591 6.74845 16 6.70867C15.6023 6.74845 15.2642 6.92742 14.9858 7.24561C14.7074 7.56379 14.5682 7.92174 14.5682 8.31947C14.5682 8.31947 14.5682 8.33936 14.5682 8.37913C14.5682 8.77686 14.7074 9.12487 14.9858 9.42316C15.2642 9.72146 15.6023 9.87061 16 9.87061Z" fill="#00AA55"/>
</svg>
