<svg width="40" height="40" viewBox="0 0 40 40" fill="none" xmlns="http://www.w3.org/2000/svg">
<path d="M38.7879 12.3523C39.1919 12.5543 39.394 12.8826 39.394 13.3371V38.4886C39.394 38.8927 39.2172 39.2083 38.8637 39.4356C38.5101 39.6629 38.1313 39.6755 37.7273 39.4735L24.6212 32.9583L13.7879 39.4735C13.3839 39.6755 12.9798 39.6755 12.5758 39.4735L1.13638 32.6553C0.782847 32.4533 0.606079 32.125 0.606079 31.6705V6.51894C0.606079 6.06439 0.795473 5.73611 1.17426 5.53409C1.55305 5.33207 1.94446 5.33207 2.3485 5.53409L5.37881 7.35227C5.73234 5.48359 6.64143 3.93055 8.10608 2.69318C9.57073 1.45581 11.2626 0.83712 13.1818 0.83712C14.4445 0.83712 15.6313 1.1149 16.7424 1.67045C17.8536 2.22601 18.7879 2.99621 19.5455 3.98106C20.303 4.96591 20.7828 6.08965 20.9849 7.35227L23.9394 5.53409C24.2929 5.33207 24.6717 5.33207 25.0758 5.53409L38.7879 12.3523ZM12.0455 36.5189V22.7311L8.18184 15.0038C6.56568 13.6907 5.60608 11.9987 5.30305 9.92803L2.87881 8.48864V30.9886L12.0455 36.5189ZM13.1818 19.8523L16.2879 13.7159C16.3384 13.5644 16.4394 13.4381 16.5909 13.3371C18.1061 12.1755 18.8637 10.6604 18.8637 8.79167C18.8637 7.22601 18.3081 5.88763 17.197 4.77652C16.0859 3.6654 14.7475 3.10985 13.1818 3.10985C12.1717 3.10985 11.2248 3.36237 10.3409 3.86742C9.45709 4.37247 8.76264 5.06692 8.25759 5.95076C7.75254 6.83459 7.50002 7.78156 7.50002 8.79167C7.50002 10.6604 8.25759 12.1755 9.77275 13.3371C9.92426 13.4381 10.0253 13.5644 10.0758 13.7159L13.1818 19.8523ZM23.4091 31.0644V8.48864L21.0606 9.92803C20.7576 11.9987 19.798 13.6907 18.1818 15.0038L14.3182 22.7311V36.5189L23.4091 31.0644ZM37.1212 36.6705V14.0189L25.6818 8.33712V30.9886L37.1212 36.6705ZM10.7576 6.36742C10.7576 6.36742 10.9217 6.20328 11.25 5.875C11.5783 5.54671 12.2222 5.38258 13.1818 5.38258C14.1414 5.38258 14.9495 5.71086 15.6061 6.36742C16.2626 7.02399 16.5909 7.83207 16.5909 8.79167C16.5909 9.75126 16.2626 10.5593 15.6061 11.2159C14.9495 11.8725 14.1414 12.2008 13.1818 12.2008C12.2222 12.2008 11.4142 11.8725 10.7576 11.2159C10.101 10.5593 9.77275 9.75126 9.77275 8.79167C9.77275 7.83207 10.101 7.02399 10.7576 6.36742ZM12.3864 9.58712C12.3864 9.58712 12.4432 9.64394 12.5568 9.75757C12.6705 9.87121 12.8788 9.92803 13.1818 9.92803C13.4849 9.92803 13.75 9.81439 13.9773 9.58712C14.2046 9.35985 14.3182 9.0947 14.3182 8.79167C14.3182 8.48864 14.2046 8.22348 13.9773 7.99621C13.75 7.76894 13.4849 7.6553 13.1818 7.6553C12.8788 7.6553 12.6137 7.76894 12.3864 7.99621C12.1591 8.22348 12.0455 8.48864 12.0455 8.79167C12.0455 9.0947 12.1591 9.35985 12.3864 9.58712Z" fill="#00AA55"/>
</svg>
