<svg width="70" height="70" viewBox="0 0 70 70" fill="none" xmlns="http://www.w3.org/2000/svg">
<mask id="path-1-outside-1_638_8365" maskUnits="userSpaceOnUse" x="16.958" y="6.75" width="36" height="45" fill="black">
<rect fill="white" x="16.958" y="6.75" width="36" height="45"/>
<path fill-rule="evenodd" clip-rule="evenodd" d="M42.2913 8.75H49.3747L38.5413 27.7083L51.0413 49.5833H37.9163L36.2497 46.6667H42.2913L34.9997 33.9063L27.708 46.6667H33.7497L32.083 49.5833H18.958L31.458 27.7083L20.6247 8.75H27.708L34.9997 21.5104L42.2913 8.75Z"/>
</mask>
<path fill-rule="evenodd" clip-rule="evenodd" d="M42.2913 8.75H49.3747L38.5413 27.7083L51.0413 49.5833H37.9163L36.2497 46.6667H42.2913L34.9997 33.9063L27.708 46.6667H33.7497L32.083 49.5833H18.958L31.458 27.7083L20.6247 8.75H27.708L34.9997 21.5104L42.2913 8.75Z" fill="#139154"/>
<path d="M49.3747 8.75L50.6409 9.47354C50.8988 9.02218 50.8969 8.46765 50.636 8.01802C50.3751 7.5684 49.8945 7.29167 49.3747 7.29167V8.75ZM42.2913 8.75V7.29167C41.768 7.29167 41.2848 7.57208 41.0252 8.02646L42.2913 8.75ZM38.5413 27.7083L37.2752 26.9848C37.019 27.4331 37.019 27.9835 37.2752 28.4319L38.5413 27.7083ZM51.0413 49.5833V51.0417C51.5612 51.0417 52.0417 50.7649 52.3027 50.3153C52.5636 49.8657 52.5655 49.3112 52.3075 48.8598L51.0413 49.5833ZM37.9163 49.5833L36.6502 50.3069C36.9098 50.7612 37.393 51.0417 37.9163 51.0417V49.5833ZM36.2497 46.6667V45.2083C35.7298 45.2083 35.2493 45.4851 34.9883 45.9347C34.7274 46.3843 34.7256 46.9388 34.9835 47.3902L36.2497 46.6667ZM42.2913 46.6667V48.125C42.8112 48.125 43.2917 47.8483 43.5527 47.3986C43.8136 46.949 43.8154 46.3945 43.5575 45.9431L42.2913 46.6667ZM34.9997 33.9063L36.2659 33.1827C36.0062 32.7283 35.523 32.4479 34.9997 32.4479C34.4763 32.4479 33.9931 32.7283 33.7335 33.1827L34.9997 33.9063ZM27.708 46.6667L26.4418 45.9431C26.1839 46.3945 26.1858 46.949 26.4467 47.3986C26.7076 47.8483 27.1882 48.125 27.708 48.125V46.6667ZM33.7497 46.6667L35.0159 47.3902C35.2738 46.9388 35.2719 46.3843 35.011 45.9347C34.7501 45.4851 34.2695 45.2083 33.7497 45.2083V46.6667ZM32.083 49.5833V51.0417C32.6063 51.0417 33.0895 50.7612 33.3492 50.3069L32.083 49.5833ZM18.958 49.5833L17.6918 48.8598C17.4339 49.3112 17.4358 49.8657 17.6967 50.3153C17.9576 50.7649 18.4382 51.0417 18.958 51.0417V49.5833ZM31.458 27.7083L32.7242 28.4319C32.9804 27.9835 32.9804 27.4331 32.7242 26.9848L31.458 27.7083ZM20.6247 8.75V7.29167C20.1048 7.29167 19.6243 7.5684 19.3633 8.01802C19.1024 8.46765 19.1006 9.02218 19.3585 9.47354L20.6247 8.75ZM27.708 8.75L28.9742 8.02646C28.7146 7.57208 28.2313 7.29167 27.708 7.29167V8.75ZM34.9997 21.5104L33.7335 22.2339C33.9931 22.6883 34.4763 22.9687 34.9997 22.9687C35.523 22.9687 36.0062 22.6883 36.2659 22.2339L34.9997 21.5104ZM49.3747 7.29167H42.2913V10.2083H49.3747V7.29167ZM39.8075 28.4319L50.6409 9.47354L48.1085 8.02646L37.2752 26.9848L39.8075 28.4319ZM37.2752 28.4319L49.7752 50.3069L52.3075 48.8598L39.8075 26.9848L37.2752 28.4319ZM51.0413 48.125H37.9163V51.0417H51.0413V48.125ZM39.1825 48.8598L37.5159 45.9431L34.9835 47.3902L36.6502 50.3069L39.1825 48.8598ZM36.2497 48.125H42.2913V45.2083H36.2497V48.125ZM43.5575 45.9431L36.2659 33.1827L33.7335 34.6298L41.0251 47.3902L43.5575 45.9431ZM28.9742 47.3902L36.2659 34.6298L33.7335 33.1827L26.4418 45.9431L28.9742 47.3902ZM33.7497 45.2083H27.708V48.125H33.7497V45.2083ZM33.3492 50.3069L35.0159 47.3902L32.4835 45.9431L30.8168 48.8598L33.3492 50.3069ZM18.958 51.0417H32.083V48.125H18.958V51.0417ZM30.1918 26.9848L17.6918 48.8598L20.2242 50.3069L32.7242 28.4319L30.1918 26.9848ZM32.7242 26.9848L21.8909 8.02646L19.3585 9.47354L30.1918 28.4319L32.7242 26.9848ZM20.6247 10.2083H27.708V7.29167H20.6247V10.2083ZM26.4418 9.47354L33.7335 22.2339L36.2659 20.7869L28.9742 8.02646L26.4418 9.47354ZM41.0252 8.02646L33.7335 20.7869L36.2659 22.2339L43.5575 9.47354L41.0252 8.02646Z" fill="#02532C" mask="url(#path-1-outside-1_638_8365)"/>
<mask id="path-3-outside-2_638_8365" maskUnits="userSpaceOnUse" x="5.29199" y="3.83334" width="59" height="26" fill="black">
<rect fill="white" x="5.29199" y="3.83334" width="59" height="26"/>
<path fill-rule="evenodd" clip-rule="evenodd" d="M20.417 5.83334H7.29199L19.9094 27.9139C22.6619 25.2901 26.0975 23.3767 29.9222 22.4675L20.417 5.83334ZM40.0784 22.4675C43.9031 23.3767 47.3387 25.2901 50.0912 27.9139L62.7087 5.83334H49.5837L40.0784 22.4675Z"/>
</mask>
<path fill-rule="evenodd" clip-rule="evenodd" d="M20.417 5.83334H7.29199L19.9094 27.9139C22.6619 25.2901 26.0975 23.3767 29.9222 22.4675L20.417 5.83334ZM40.0784 22.4675C43.9031 23.3767 47.3387 25.2901 50.0912 27.9139L62.7087 5.83334H49.5837L40.0784 22.4675Z" fill="#38C682"/>
<path d="M7.29199 5.83334V4.37501C6.77214 4.37501 6.29159 4.65174 6.03066 5.10137C5.76974 5.55099 5.76789 6.10552 6.0258 6.55688L7.29199 5.83334ZM20.417 5.83334L21.6832 5.10981C21.4235 4.65543 20.9403 4.37501 20.417 4.37501V5.83334ZM19.9094 27.9139L18.6433 28.6374C18.8657 29.0267 19.2549 29.2921 19.6986 29.3569C20.1423 29.4217 20.5911 29.2789 20.9157 28.9695L19.9094 27.9139ZM29.9222 22.4675L30.2595 23.8863C30.7065 23.78 31.0774 23.4692 31.2602 23.0476C31.443 22.626 31.4164 22.1429 31.1884 21.7439L29.9222 22.4675ZM40.0784 22.4675L38.8123 21.7439C38.5843 22.1429 38.5577 22.626 38.7405 23.0476C38.9233 23.4692 39.2941 23.78 39.7412 23.8863L40.0784 22.4675ZM50.0912 27.9139L49.085 28.9695C49.4095 29.2789 49.8584 29.4217 50.3021 29.3569C50.7457 29.2921 51.1349 29.0267 51.3574 28.6374L50.0912 27.9139ZM62.7087 5.83334L63.9748 6.55688C64.2328 6.10552 64.2309 5.55099 63.97 5.10137C63.7091 4.65174 63.2285 4.37501 62.7087 4.37501V5.83334ZM49.5837 5.83334V4.37501C49.0603 4.37501 48.5771 4.65543 48.3175 5.10981L49.5837 5.83334ZM7.29199 7.29168H20.417V4.37501H7.29199V7.29168ZM21.1756 27.1904L8.55818 5.10981L6.0258 6.55688L18.6433 28.6374L21.1756 27.1904ZM20.9157 28.9695C23.4861 26.5192 26.6925 24.7342 30.2595 23.8863L29.5849 21.0487C25.5026 22.0191 21.8377 24.0611 18.9032 26.8583L20.9157 28.9695ZM19.1508 6.55688L28.656 23.191L31.1884 21.7439L21.6832 5.10981L19.1508 6.55688ZM39.7412 23.8863C43.3082 24.7342 46.5145 26.5192 49.085 28.9695L51.0974 26.8583C48.1629 24.061 44.4981 22.0191 40.4157 21.0487L39.7412 23.8863ZM61.4425 5.10981L48.825 27.1903L51.3574 28.6374L63.9748 6.55688L61.4425 5.10981ZM49.5837 7.29168H62.7087V4.37501H49.5837V7.29168ZM41.3446 23.191L50.8498 6.55688L48.3175 5.10981L38.8123 21.7439L41.3446 23.191Z" fill="#02532C" mask="url(#path-3-outside-2_638_8365)"/>
<path d="M9.47949 7.29166L20.0524 25.5208" stroke="#4EE99E" stroke-width="1.45833" stroke-linecap="round" stroke-linejoin="round"/>
<path d="M50.3122 7.29166L41.9268 21.875" stroke="#4EE99E" stroke-width="1.45833" stroke-linecap="round" stroke-linejoin="round"/>
<circle cx="34.9997" cy="43.75" r="21.1458" fill="#C27C3B" stroke="#672001" stroke-width="1.45833" stroke-linejoin="round"/>
<circle cx="35.0003" cy="43.75" r="16.7708" fill="#FCCA9B"/>
<circle cx="44.2477" cy="57.1992" r="1.45833" transform="rotate(-8.26953 44.2477 57.1992)" fill="#F2B275"/>
<circle cx="43.7209" cy="52.9459" r="1.36836" transform="rotate(-8.26953 43.7209 52.9459)" fill="#F2B275"/>
<circle cx="50.0942" cy="48.6355" r="1.09375" transform="rotate(-8.26953 50.0942 48.6355)" fill="#F2B275"/>
<circle cx="36.4156" cy="59.0745" r="1.45833" transform="rotate(-8.26953 36.4156 59.0745)" fill="#F2B275"/>
<circle cx="47.7232" cy="51.6801" r="1.31613" transform="rotate(-8.26953 47.7232 51.6801)" fill="#F2B275"/>
<circle cx="47.4935" cy="46.764" r="0.729167" transform="rotate(-8.26953 47.4935 46.764)" fill="#F2B275"/>
<circle cx="38.7435" cy="56.2431" r="0.729167" transform="rotate(-8.26953 38.7435 56.2431)" fill="#F2B275"/>
<circle cx="48.3675" cy="55.1268" r="0.729167" transform="rotate(-8.26953 48.3675 55.1268)" fill="#F2B275"/>
<circle cx="40.2015" cy="58.4306" r="0.729167" transform="rotate(-8.26953 40.2015 58.4306)" fill="#F2B275"/>
<circle cx="32.1907" cy="60.4253" r="0.729167" transform="rotate(-8.26953 32.1907 60.4253)" fill="#F2B275"/>
<circle cx="35" cy="43.75" r="17.5" stroke="#A55833" stroke-width="1.45833" stroke-linejoin="round"/>
<path d="M16.042 43.75C16.042 33.2796 24.5299 24.7917 35.0003 24.7917" stroke="#EC9F58" stroke-width="1.45833" stroke-linecap="round" stroke-linejoin="round"/>
<circle cx="35.0003" cy="43.75" r="13.125" fill="#F6B981" stroke="#A55833" stroke-width="1.45833"/>
<path d="M23.333 43.75C23.333 37.3067 28.5564 32.0833 34.9997 32.0833" stroke="#FFEFDF" stroke-width="1.45833" stroke-linecap="round" stroke-linejoin="round"/>
<path d="M27.5632 41.2854C27.3008 41.3385 27.0887 41.5312 27.0106 41.7873C26.9325 42.0434 27.001 42.3216 27.189 42.5122L30.5637 45.9319L29.727 50.1713C29.673 50.4449 29.7798 50.7253 30.0021 50.8937C30.2243 51.0621 30.5232 51.089 30.7719 50.963L34.9997 48.8209L39.2274 50.963C39.4762 51.089 39.775 51.0621 39.9973 50.8937C40.2196 50.7253 40.3263 50.4449 40.2723 50.1713L39.4356 45.9319L42.8103 42.5122C42.9984 42.3216 43.0669 42.0434 42.9888 41.7873C42.9107 41.5312 42.6986 41.3385 42.4362 41.2854L38.1964 40.4261L35.6271 36.0868C35.4958 35.8651 35.2573 35.7292 34.9997 35.7292C34.742 35.7292 34.5035 35.8651 34.3722 36.0868L33.0051 38.3959L31.8029 40.4261L27.5632 41.2854Z" fill="#FFD2B1" stroke="#964F2E" stroke-width="1.45833" stroke-linecap="round" stroke-linejoin="round"/>
<circle cx="55.4167" cy="8.75001" r="0.729167" fill="#1DAE69"/>
<circle cx="58.3337" cy="8.75001" r="0.729167" fill="#1DAE69"/>
<circle cx="54.6882" cy="16.0417" r="0.729167" fill="#1DAE69"/>
<circle cx="51.7712" cy="20.4167" r="0.729167" fill="#1DAE69"/>
<circle cx="52.5007" cy="10.9375" r="0.729167" fill="#1DAE69"/>
<circle cx="55.0527" cy="12.7604" r="1.09375" fill="#1DAE69"/>
<circle cx="52.1357" cy="16.4062" r="1.09375" fill="#1DAE69"/>
</svg>
