<svg width="60" height="61" viewBox="0 0 60 61" fill="none" xmlns="http://www.w3.org/2000/svg">
<path fill-rule="evenodd" clip-rule="evenodd" d="M38.174 1.99651C38.3564 1.46697 38.4475 1.2022 38.6202 1.03543C38.7721 0.888729 38.9666 0.793888 39.1757 0.764498C39.4135 0.731086 39.6782 0.822253 40.2078 1.00459L41.6842 1.51298C42.2138 1.69531 42.4786 1.78648 42.6453 1.95918C42.792 2.11109 42.8869 2.30554 42.9163 2.51466C42.9497 2.7524 42.8585 3.01717 42.6762 3.54671L36.2211 22.2937L31.7189 20.7435L38.174 1.99651ZM21.9284 25.5186L3.18146 19.0637C2.65192 18.8814 2.38715 18.7902 2.1494 18.8236C1.94028 18.853 1.74582 18.9479 1.59391 19.0946C1.42121 19.2613 1.33004 19.5261 1.1477 20.0556L0.639298 21.5321C0.456958 22.0616 0.365788 22.3264 0.399198 22.5641C0.428587 22.7733 0.523426 22.9677 0.670123 23.1196C0.836889 23.2923 1.10165 23.3835 1.63115 23.5658L1.63118 23.5658L1.63121 23.5658L20.3781 30.0207L21.9284 25.5186ZM25.5181 38.752L19.0632 57.4985C18.8808 58.028 18.7897 58.2928 18.8231 58.5305C18.8525 58.7396 18.9473 58.9341 19.094 59.086C19.2608 59.2587 19.5256 59.3499 20.0551 59.5322L21.5316 60.0406C22.0611 60.2229 22.3259 60.3141 22.5636 60.2807C22.7727 60.2513 22.9672 60.1565 23.1191 60.0098C23.2918 59.843 23.383 59.5782 23.5653 59.0487L30.0202 40.3022L25.5181 38.752ZM38.3867 36.2213L57.1334 42.6761L57.1334 42.6761C57.6629 42.8584 57.9277 42.9496 58.1654 42.9162C58.3745 42.8868 58.569 42.792 58.7209 42.6453C58.8936 42.4785 58.9848 42.2137 59.1671 41.6842L59.1671 41.6842L59.6755 40.2077C59.8579 39.6782 59.949 39.4134 59.9156 39.1757C59.8862 38.9666 59.7914 38.7721 59.6447 38.6202C59.4779 38.4475 59.2132 38.3563 58.6836 38.174L39.9369 31.7192L38.3867 36.2213Z" fill="#FF5C00"/>
</svg>
