<svg width="47" height="50" viewBox="0 0 47 50" fill="none" xmlns="http://www.w3.org/2000/svg">
<path d="M4.66667 49.5C3.38333 49.5 2.28511 49.0434 1.372 48.1303C0.458889 47.2172 0.00155556 46.1182 0 44.8333V16.8333C0 15.8611 0.262889 14.9861 0.788667 14.2083C1.31444 13.4305 2.02378 12.8667 2.91667 12.5167L32.4333 0.499994L33.95 4.34999L14.7 12.1667H42C43.2833 12.1667 44.3823 12.624 45.297 13.5387C46.2117 14.4533 46.6682 15.5515 46.6667 16.8333V44.8333C46.6667 46.1167 46.2101 47.2157 45.297 48.1303C44.3839 49.045 43.2849 49.5015 42 49.5H4.66667ZM4.66667 44.8333H42V28.5H4.66667V44.8333ZM14 42.5C15.6333 42.5 17.0139 41.9361 18.1417 40.8083C19.2694 39.6805 19.8333 38.3 19.8333 36.6667C19.8333 35.0333 19.2694 33.6528 18.1417 32.525C17.0139 31.3972 15.6333 30.8333 14 30.8333C12.3667 30.8333 10.9861 31.3972 9.85833 32.525C8.73056 33.6528 8.16667 35.0333 8.16667 36.6667C8.16667 38.3 8.73056 39.6805 9.85833 40.8083C10.9861 41.9361 12.3667 42.5 14 42.5ZM4.66667 23.8333H32.6667V19.1667H37.3333V23.8333H42V16.8333H4.66667V23.8333Z" fill="#1DAE69"/>
</svg>
