<svg width="74" height="74" viewBox="0 0 74 74" fill="none" xmlns="http://www.w3.org/2000/svg">
<circle cx="37" cy="37" r="37" fill="#DC6803"/>
<rect width="28" height="28" transform="translate(23 23)" fill="#DC6803"/>
<circle cx="37" cy="37" r="14" fill="white"/>
<g filter="url(#filter0_d_425_8304)">
<path d="M38.1641 35.2656C38.1641 34.875 38 34.5339 37.6719 34.2422C37.349 33.9505 36.9661 33.8047 36.5234 33.8047C36.1745 33.8047 35.8542 33.901 35.5625 34.0938C35.2708 34.2865 35.0833 34.4922 35 34.7109C34.9271 34.9036 34.8255 35.0573 34.6953 35.1719C34.5651 35.2865 34.3802 35.3438 34.1406 35.3438C33.9688 35.3438 33.8073 35.2708 33.6562 35.125C33.5052 34.974 33.4297 34.8151 33.4297 34.6484C33.4297 34.5755 33.4349 34.513 33.4453 34.4609C33.4609 34.4036 33.474 34.3568 33.4844 34.3203C33.6979 33.7578 34.0677 33.2734 34.5938 32.8672C35.125 32.4557 35.7682 32.25 36.5234 32.25C37.1016 32.25 37.6328 32.3828 38.1172 32.6484C38.6068 32.9141 38.9974 33.2786 39.2891 33.7422C39.5859 34.2057 39.7344 34.7344 39.7344 35.3281C39.7344 35.7812 39.638 36.1849 39.4453 36.5391C39.2578 36.8932 39.0391 37.1927 38.7891 37.4375C39.1536 37.6875 39.4427 38.0052 39.6562 38.3906C39.8698 38.776 39.9766 39.2214 39.9766 39.7266C39.9766 40.388 39.8073 40.9766 39.4688 41.4922C39.1302 42.0026 38.6849 42.4036 38.1328 42.6953C37.5807 42.987 36.9818 43.1328 36.3359 43.1328C35.638 43.1328 35.0156 42.9661 34.4688 42.6328C33.9219 42.2995 33.4896 41.9141 33.1719 41.4766C33.0729 41.3359 33.0234 41.1823 33.0234 41.0156C33.0234 40.8021 33.1068 40.6302 33.2734 40.5C33.4453 40.3698 33.6354 40.3047 33.8438 40.3047C34.0885 40.3047 34.2891 40.4089 34.4453 40.6172C34.6276 40.8516 34.8828 41.0677 35.2109 41.2656C35.5391 41.4635 35.8984 41.5625 36.2891 41.5625C36.6745 41.5625 37.026 41.4818 37.3438 41.3203C37.6667 41.1589 37.9245 40.9427 38.1172 40.6719C38.3151 40.3958 38.4141 40.0911 38.4141 39.7578C38.4141 39.2318 38.237 38.8724 37.8828 38.6797C37.5286 38.4818 37.026 38.3802 36.375 38.375C36.1719 38.375 35.9948 38.3021 35.8438 38.1562C35.6979 38.0104 35.625 37.8255 35.625 37.6016C35.625 37.3151 35.7214 37.1068 35.9141 36.9766C36.1068 36.8411 36.3047 36.7734 36.5078 36.7734C36.987 36.7734 37.3828 36.6536 37.6953 36.4141C38.0078 36.1693 38.1641 35.7865 38.1641 35.2656Z" fill="#DC6803"/>
</g>
<defs>
<filter id="filter0_d_425_8304" x="20.0234" y="19.25" width="32.9531" height="36.8828" filterUnits="userSpaceOnUse" color-interpolation-filters="sRGB">
<feFlood flood-opacity="0" result="BackgroundImageFix"/>
<feColorMatrix in="SourceAlpha" type="matrix" values="0 0 0 0 0 0 0 0 0 0 0 0 0 0 0 0 0 0 127 0" result="hardAlpha"/>
<feOffset/>
<feGaussianBlur stdDeviation="6.5"/>
<feComposite in2="hardAlpha" operator="out"/>
<feColorMatrix type="matrix" values="0 0 0 0 0 0 0 0 0 0 0 0 0 0 0 0 0 0 0.25 0"/>
<feBlend mode="normal" in2="BackgroundImageFix" result="effect1_dropShadow_425_8304"/>
<feBlend mode="normal" in="SourceGraphic" in2="effect1_dropShadow_425_8304" result="shape"/>
</filter>
</defs>
</svg>
