<svg width="31" height="32" viewBox="0 0 31 32" fill="none" xmlns="http://www.w3.org/2000/svg">
<path d="M4.73871 5.08327C4.73871 5.08327 5.48445 4.33754 6.97593 2.84606C8.46741 1.35458 11.3211 0.608843 15.537 0.608843C19.7529 0.608843 23.3524 2.10032 26.3353 5.08327C29.3183 8.06623 30.8097 11.6657 30.8097 15.8816C30.8097 20.0975 29.3183 23.6969 26.3353 26.6799C23.3524 29.6628 19.7529 31.1543 15.537 31.1543C11.3211 31.1543 7.72167 29.6628 4.73871 26.6799C1.75576 23.6969 0.264282 20.0975 0.264282 15.8816C0.264282 11.6657 1.75576 8.06623 4.73871 5.08327ZM25.9177 25.3674C28.2245 22.8617 29.4376 19.8986 29.5569 16.4782H27.7075C27.5086 16.4782 27.3495 16.4185 27.2302 16.2992C27.1109 16.1799 27.0512 16.0407 27.0512 15.8816C27.0512 15.7225 27.1109 15.5833 27.2302 15.464C27.3495 15.3446 27.5086 15.285 27.7075 15.285H29.5569C29.4376 11.8645 28.2245 8.90146 25.9177 6.39577L24.5455 7.70827C24.4262 7.82759 24.287 7.88725 24.1279 7.88725C23.9688 7.88725 23.8296 7.82759 23.7103 7.70827C23.4319 7.42986 23.4319 7.15146 23.7103 6.87305L25.0228 5.50089C22.5171 3.19407 19.5541 1.981 16.1336 1.86168V3.71111C16.1336 3.90998 16.0739 4.06907 15.9546 4.18839C15.8353 4.30771 15.6961 4.36736 15.537 4.36736C15.3779 4.36736 15.2387 4.30771 15.1194 4.18839C15.0001 4.06907 14.9404 3.90998 14.9404 3.71111V1.86168C11.52 1.981 8.5569 3.19407 6.05121 5.50089L7.36371 6.87305C7.6819 7.15146 7.6819 7.42986 7.36371 7.70827C7.2444 7.82759 7.10519 7.88725 6.9461 7.88725C6.78701 7.88725 6.6478 7.82759 6.52849 7.70827L5.15633 6.39577C4.08246 7.58896 3.22735 8.95117 2.59099 10.4824C1.95462 12.0137 1.59667 13.6145 1.51712 15.285H3.36655C3.56542 15.285 3.72451 15.3446 3.84383 15.464C3.96315 15.5833 4.0228 15.7225 4.0228 15.8816C4.0228 16.0407 3.96315 16.1799 3.84383 16.2992C3.72451 16.4185 3.56542 16.4782 3.36655 16.4782H1.51712C1.63644 19.8986 2.84951 22.8617 5.15633 25.3674L6.52849 24.0549C6.8069 23.7765 7.09525 23.7765 7.39354 24.0549C7.69184 24.3333 7.6819 24.6117 7.36371 24.8901L6.05121 26.2623C8.5569 28.5691 11.52 29.7821 14.9404 29.9015V28.052C14.9404 27.8532 15.0001 27.6941 15.1194 27.5748C15.2387 27.4554 15.3779 27.3958 15.537 27.3958C15.6961 27.3958 15.8353 27.4554 15.9546 27.5748C16.0739 27.6941 16.1336 27.8532 16.1336 28.052V29.9015C19.5541 29.7821 22.5171 28.5691 25.0228 26.2623L23.7103 24.8901C23.3921 24.6117 23.3822 24.3233 23.6805 24.025C23.9788 23.7267 24.2671 23.7367 24.5455 24.0549L25.9177 25.3674ZM16.1336 13.8532C16.4518 13.9327 16.7202 14.0719 16.939 14.2708C17.1577 14.4696 17.3367 14.7083 17.4759 14.9867C17.6151 15.2651 17.6847 15.5634 17.6847 15.8816C17.6847 16.4782 17.4759 16.9853 17.0583 17.4029C16.6407 17.8205 16.1336 18.0293 15.537 18.0293C15.1791 18.0293 14.841 17.9299 14.5228 17.731L10.466 21.7878C10.3467 21.9071 10.2075 21.9668 10.0484 21.9668C9.88928 21.9668 9.75008 21.9071 9.63076 21.7878C9.31258 21.5094 9.31258 21.231 9.63076 20.9526L13.6876 16.8958C13.4887 16.5776 13.3893 16.2395 13.3893 15.8816C13.3893 15.4043 13.5384 14.9767 13.8367 14.5989C14.135 14.2211 14.5029 13.9725 14.9404 13.8532V5.79918C14.9404 5.36168 15.1393 5.14293 15.537 5.14293C15.6961 5.14293 15.8353 5.20259 15.9546 5.32191C16.0739 5.44123 16.1336 5.60032 16.1336 5.79918V13.8532ZM14.9106 16.508C14.9106 16.508 14.9553 16.5527 15.0448 16.6422C15.1343 16.7317 15.2984 16.7765 15.537 16.7765C15.7756 16.7765 15.9845 16.687 16.1634 16.508C16.3424 16.329 16.4319 16.1202 16.4319 15.8816C16.4319 15.6429 16.3424 15.4341 16.1634 15.2551C15.9845 15.0762 15.7756 14.9867 15.537 14.9867C15.2984 14.9867 15.0896 15.0762 14.9106 15.2551C14.7316 15.4341 14.6421 15.6429 14.6421 15.8816C14.6421 16.1202 14.7316 16.329 14.9106 16.508Z" fill="#00AA55"/>
</svg>
