<svg width="48" height="50" viewBox="0 0 48 50" fill="none" xmlns="http://www.w3.org/2000/svg">
<path fill-rule="evenodd" clip-rule="evenodd" d="M12.3327 6.34744L16.4539 2.22619L22.6489 8.42119L30.9031 0.167023L35.0185 4.28536L27.8318 11.472H41.4993C43.0464 11.472 44.5302 12.0866 45.6241 13.1806C46.7181 14.2745 47.3327 15.7583 47.3327 17.3054V37.722C47.3327 39.2691 46.7181 40.7528 45.6241 41.8468C44.5302 42.9408 43.0464 43.5554 41.4993 43.5554H6.49935C4.95225 43.5554 3.46852 42.9408 2.37456 41.8468C1.2806 40.7528 0.666016 39.2691 0.666016 37.722V17.3054C0.666016 15.7583 1.2806 14.2745 2.37456 13.1806C3.46852 12.0866 4.95225 11.472 6.49935 11.472H17.4573L12.3327 6.34744ZM41.4993 17.3054H6.49935V37.722H41.4993V17.3054Z" fill="#1DAE69"/>
<path d="M12.332 46.472H35.6654V49.3886H12.332V46.472Z" fill="#1DAE69"/>
</svg>
