<svg width="74" height="74" viewBox="0 0 74 74" fill="none" xmlns="http://www.w3.org/2000/svg">
<circle cx="37" cy="37" r="37" fill="#FFBA49"/>
<rect width="28" height="28" transform="translate(23 23)" fill="#FFBA49"/>
<circle cx="37" cy="37" r="14" fill="white"/>
<g filter="url(#filter0_d_425_8298)">
<path d="M32.9844 42.0234C32.7708 42.0234 32.5859 41.9479 32.4297 41.7969C32.2786 41.6406 32.2031 41.4557 32.2031 41.2422C32.2031 40.9766 32.2839 40.7031 32.4453 40.4219C32.6068 40.1354 32.8073 39.8594 33.0469 39.5938C33.2865 39.3229 33.5286 39.0755 33.7734 38.8516C34.0182 38.6276 34.224 38.4427 34.3906 38.2969C34.7188 38.0104 35.0729 37.7448 35.4531 37.5C35.8333 37.25 36.1927 36.9896 36.5312 36.7188C36.875 36.4427 37.1536 36.1302 37.3672 35.7812C37.5859 35.4271 37.6953 35.0078 37.6953 34.5234C37.6953 34.1432 37.6094 33.8021 37.4375 33.5C37.2656 33.1979 37.0339 32.9583 36.7422 32.7812C36.4505 32.599 36.1224 32.5078 35.7578 32.5078C35.3047 32.5078 34.9141 32.651 34.5859 32.9375C34.263 33.224 34.0625 33.5495 33.9844 33.9141C33.9479 34.0807 33.8542 34.2266 33.7031 34.3516C33.5573 34.4766 33.3932 34.5391 33.2109 34.5391C32.9974 34.5391 32.8125 34.4635 32.6562 34.3125C32.5052 34.1615 32.4297 33.9818 32.4297 33.7734C32.4297 33.388 32.526 33.026 32.7188 32.6875C32.9115 32.3438 33.1667 32.0417 33.4844 31.7812C33.8073 31.5208 34.1667 31.3177 34.5625 31.1719C34.9583 31.0208 35.362 30.9453 35.7734 30.9453C36.4505 30.9453 37.0495 31.1042 37.5703 31.4219C38.0964 31.7344 38.5078 32.1589 38.8047 32.6953C39.1068 33.2318 39.2578 33.8307 39.2578 34.4922C39.2578 35.1797 39.125 35.7708 38.8594 36.2656C38.5938 36.7604 38.2578 37.1927 37.8516 37.5625C37.4453 37.9271 37.026 38.2578 36.5938 38.5547C36.1615 38.8516 35.776 39.1458 35.4375 39.4375C35.0625 39.7708 34.7318 40.112 34.4453 40.4609H39.0156C39.2292 40.4609 39.4115 40.5391 39.5625 40.6953C39.7188 40.8464 39.7969 41.0286 39.7969 41.2422C39.7969 41.4557 39.7188 41.6406 39.5625 41.7969C39.4115 41.9479 39.2292 42.0234 39.0156 42.0234H32.9844Z" fill="#F8A401"/>
</g>
<defs>
<filter id="filter0_d_425_8298" x="19.2031" y="17.9453" width="33.5938" height="37.0781" filterUnits="userSpaceOnUse" color-interpolation-filters="sRGB">
<feFlood flood-opacity="0" result="BackgroundImageFix"/>
<feColorMatrix in="SourceAlpha" type="matrix" values="0 0 0 0 0 0 0 0 0 0 0 0 0 0 0 0 0 0 127 0" result="hardAlpha"/>
<feOffset/>
<feGaussianBlur stdDeviation="6.5"/>
<feComposite in2="hardAlpha" operator="out"/>
<feColorMatrix type="matrix" values="0 0 0 0 0 0 0 0 0 0 0 0 0 0 0 0 0 0 0.25 0"/>
<feBlend mode="normal" in2="BackgroundImageFix" result="effect1_dropShadow_425_8298"/>
<feBlend mode="normal" in="SourceGraphic" in2="effect1_dropShadow_425_8298" result="shape"/>
</filter>
</defs>
</svg>
