<svg width="70" height="70" viewBox="0 0 70 70" fill="none" xmlns="http://www.w3.org/2000/svg">
<path d="M35.0014 38.8109C37.176 38.8109 38.9388 37.048 38.9388 34.8734C38.9388 32.6988 37.176 30.936 35.0014 30.936C32.8268 30.936 31.064 32.6988 31.064 34.8734C31.064 37.048 32.8268 38.8109 35.0014 38.8109Z" fill="#1DAE69"/>
<path d="M27.8083 44.2545C27.4682 44.2548 27.1319 44.183 26.8216 44.0439C26.5113 43.9048 26.234 43.7014 26.008 43.4473C23.9089 41.0851 22.7495 38.0348 22.7495 34.8746C22.7495 31.7145 23.9089 28.6642 26.008 26.3019C26.2162 26.0596 26.4706 25.8611 26.7563 25.718C27.042 25.575 27.3533 25.4903 27.6721 25.4689C27.9909 25.4475 28.3108 25.4898 28.613 25.5933C28.9153 25.6968 29.1939 25.8595 29.4327 26.0719C29.6714 26.2843 29.8654 26.542 30.0035 26.8302C30.1415 27.1183 30.2208 27.4311 30.2366 27.7502C30.2525 28.0693 30.2046 28.3884 30.0959 28.6888C29.9871 28.9893 29.8196 29.265 29.6031 29.5C28.2873 30.9813 27.5605 32.8938 27.5605 34.8752C27.5605 36.8565 28.2873 38.769 29.6031 40.2503C29.911 40.597 30.1122 41.0252 30.1825 41.4834C30.2528 41.9417 30.1892 42.4105 29.9994 42.8335C29.8096 43.2565 29.5016 43.6156 29.1125 43.8677C28.7234 44.1198 28.2697 44.2541 27.8061 44.2545H27.8083ZM42.1931 44.2545C41.7295 44.2541 41.2758 44.1198 40.8867 43.8677C40.4976 43.6156 40.1896 43.2565 39.9998 42.8335C39.81 42.4105 39.7464 41.9417 39.8167 41.4834C39.887 41.0252 40.0882 40.597 40.3961 40.2503C41.7119 38.769 42.4387 36.8565 42.4387 34.8752C42.4387 32.8938 41.7119 30.9813 40.3961 29.5C40.1796 29.265 40.0121 28.9893 39.9033 28.6888C39.7946 28.3884 39.7467 28.0693 39.7626 27.7502C39.7784 27.4311 39.8577 27.1183 39.9957 26.8302C40.1338 26.542 40.3278 26.2843 40.5665 26.0719C40.8053 25.8595 41.0839 25.6968 41.3862 25.5933C41.6884 25.4898 42.0083 25.4475 42.3271 25.4689C42.6459 25.4903 42.9572 25.575 43.2429 25.718C43.5286 25.8611 43.783 26.0596 43.9912 26.3019C46.0903 28.6642 47.2497 31.7145 47.2497 34.8746C47.2497 38.0348 46.0903 41.0851 43.9912 43.4473C43.7654 43.7012 43.4885 43.9043 43.1786 44.0434C42.8687 44.1826 42.5328 44.2545 42.1931 44.2545Z" fill="#1DAE69"/>
<path d="M22.2363 49.8271C21.9062 49.8274 21.5796 49.7596 21.277 49.6279C20.9744 49.4961 20.7022 49.3033 20.4775 49.0615C16.8795 45.2122 14.8779 40.1399 14.8779 34.8709C14.8779 29.6018 16.8795 24.5295 20.4775 20.6802C20.6929 20.4475 20.9521 20.2596 21.2404 20.1273C21.5286 19.9951 21.8401 19.9211 22.157 19.9097C22.4739 19.8983 22.79 19.9496 23.087 20.0607C23.384 20.1719 23.6561 20.3406 23.8876 20.5572C24.1192 20.7739 24.3057 21.0342 24.4363 21.3231C24.5669 21.6121 24.6392 21.924 24.6488 22.241C24.6585 22.5579 24.6054 22.8737 24.4926 23.1701C24.3799 23.4665 24.2096 23.7376 23.9917 23.968C21.2274 26.9257 19.6897 30.823 19.6897 34.8714C19.6897 38.9198 21.2274 42.8171 23.9917 45.7748C24.3111 46.1175 24.5235 46.5459 24.6029 47.0075C24.6823 47.4691 24.6253 47.9439 24.4388 48.3735C24.2523 48.8032 23.9444 49.1691 23.553 49.4263C23.1616 49.6835 22.7036 49.8209 22.2352 49.8217L22.2363 49.8271ZM47.7662 49.8271C47.2978 49.8264 46.8398 49.689 46.4484 49.4318C46.0569 49.1745 45.7491 48.8086 45.5626 48.379C45.3761 47.9493 45.3191 47.4746 45.3985 47.013C45.4779 46.5513 45.6903 46.123 46.0097 45.7803C48.7739 42.8226 50.3116 38.9253 50.3116 34.8769C50.3116 30.8285 48.7739 26.9312 46.0097 23.9734C45.7917 23.7431 45.6215 23.4719 45.5087 23.1755C45.3959 22.8792 45.3429 22.5634 45.3525 22.2464C45.3622 21.9295 45.4344 21.6176 45.5651 21.3286C45.6957 21.0396 45.8822 20.7794 46.1137 20.5627C46.3453 20.3461 46.6174 20.1773 46.9144 20.0662C47.2114 19.9551 47.5274 19.9037 47.8443 19.9152C48.1612 19.9266 48.4728 20.0006 48.761 20.1328C49.0492 20.265 49.3085 20.4529 49.5238 20.6857C53.1219 24.5349 55.1234 29.6073 55.1234 34.8763C55.1234 40.1454 53.1219 45.2177 49.5238 49.067C49.2988 49.3077 49.0266 49.4994 48.7242 49.6302C48.4218 49.7609 48.0957 49.828 47.7662 49.8271Z" fill="#1DAE69"/>
<path d="M53.9227 54.7794C53.4582 54.7793 53.0037 54.6447 52.6139 54.392C52.2242 54.1392 51.916 53.7791 51.7264 53.355C51.5369 52.931 51.4742 52.4611 51.5458 52.0022C51.6174 51.5432 51.8203 51.1148 52.1301 50.7687C56.0322 46.3935 58.1886 40.7359 58.1886 34.8734C58.1886 29.011 56.0322 23.3533 52.1301 18.9782C51.7181 18.5008 51.51 17.8807 51.5505 17.2514C51.5911 16.6221 51.8771 16.0338 52.347 15.6133C52.8169 15.1927 53.4331 14.9734 54.063 15.0025C54.693 15.0317 55.2863 15.307 55.7153 15.7692C60.407 21.0267 63 27.8269 63 34.8734C63 41.92 60.407 48.7201 55.7153 53.9777C55.4897 54.2298 55.2134 54.4316 54.9045 54.5697C54.5956 54.7079 54.2611 54.7793 53.9227 54.7794ZM16.0795 54.7794C15.7407 54.78 15.4056 54.7089 15.0962 54.5707C14.7869 54.4326 14.5103 54.2304 14.2847 53.9777C9.59298 48.7201 7 41.92 7 34.8734C7 27.8269 9.59298 21.0267 14.2847 15.7692C14.7137 15.307 15.307 15.0317 15.937 15.0025C16.5669 14.9734 17.1831 15.1927 17.653 15.6133C18.1229 16.0338 18.4089 16.6221 18.4495 17.2514C18.49 17.8807 18.2819 18.5008 17.8699 18.9782C13.9678 23.3533 11.8114 29.011 11.8114 34.8734C11.8114 40.7359 13.9678 46.3935 17.8699 50.7687C18.1796 51.1147 18.3824 51.5429 18.4541 52.0016C18.5258 52.4604 18.4633 52.9301 18.274 53.354C18.0847 53.778 17.7768 54.1382 17.3874 54.3911C16.9981 54.644 16.5438 54.7789 16.0795 54.7794Z" fill="#1DAE69"/>
</svg>
